<svg xmlns="http://www.w3.org/2000/svg" xmlns:xlink="http://www.w3.org/1999/xlink" viewBox="0 0 131.82 162.54"><defs><style>.cls-1{fill:none;}.cls-2{clip-path:url(#clip-path);}.cls-3{fill:#d03e27;}</style><clipPath id="clip-path" transform="translate(-7.25 -0.44)"><rect class="cls-1" width="156.44" height="183.28"/></clipPath></defs><g id="Layer_2" data-name="Layer 2"><g id="Layer_1-2" data-name="Layer 1"><g class="cls-2"><path class="cls-3" d="M36.08,41.07l.89-4h8.77q10,0,15.6-4.66t5.6-13q0-7.32-4.49-11.15T49.4,4.44q-17,0-21.86,15.65l-4-.78A24,24,0,0,1,32.7,5.38Q39.53.44,49.62.44t16,5q5.77,5,5.77,13.85A19.27,19.27,0,0,1,67,31.92,21.27,21.27,0,0,1,55.06,39a14.51,14.51,0,0,1,8,6.33,21.32,21.32,0,0,1,2.77,11.23,24.86,24.86,0,0,1-3.22,12.61A22.82,22.82,0,0,1,53.4,78a28.85,28.85,0,0,1-13.88,3.22q-11.1,0-17.48-5.83t-6.6-16h4.1q.23,8.33,5.67,13.1t14.65,4.77q10,0,15.76-5.6T61.39,56.5q0-7.44-3.61-11.44t-10.38-4Z" transform="translate(-7.25 -0.44)"/><path class="cls-3" d="M101,81.25q-10.11,0-15.54-7T80,54.39A75.72,75.72,0,0,1,84.59,27.8,49.63,49.63,0,0,1,97.41,8Q105.68.45,115.78.44t15.54,7q5.44,7,5.44,19.86a75.61,75.61,0,0,1-4.55,26.48,50.18,50.18,0,0,1-12.82,19.87Q111.11,81.26,101,81.25Zm.22-4a21.25,21.25,0,0,0,11.6-3.49,33.33,33.33,0,0,0,9.82-10.1,55.52,55.52,0,0,0,6.88-15.93,76,76,0,0,0,2.56-20.2q0-11.43-4.16-17.26T115.56,4.44A21.18,21.18,0,0,0,104,7.94,33.22,33.22,0,0,0,94.14,18,55.86,55.86,0,0,0,87.25,34,76.4,76.4,0,0,0,84.7,54.17q0,11.43,4.16,17.26T101.24,77.25Z" transform="translate(-7.25 -0.44)"/><path class="cls-3" d="M45.08,79.26a25.29,25.29,0,0,1,10,1.9,21.67,21.67,0,0,1,7.77,5.52,25,25,0,0,1,5.06,8.91,37.3,37.3,0,0,1,1.78,12,93,93,0,0,1-.81,11.9,76.76,76.76,0,0,1-2.64,12.42,68,68,0,0,1-4.77,11.79,42,42,0,0,1-7.13,10,32.05,32.05,0,0,1-9.78,6.84A30.55,30.55,0,0,1,31.85,163a25.32,25.32,0,0,1-10-1.9,21.63,21.63,0,0,1-7.76-5.52A24.84,24.84,0,0,1,9,146.65a37.72,37.72,0,0,1-1.78-12.08,85.79,85.79,0,0,1,.86-11.78,75.85,75.85,0,0,1,2.76-12.37,69.83,69.83,0,0,1,4.88-11.78,41.7,41.7,0,0,1,7.19-10,33.37,33.37,0,0,1,9.72-6.84A28.84,28.84,0,0,1,45.08,79.26Zm-.81,11.5a14.38,14.38,0,0,0-10.46,4.31,34.74,34.74,0,0,0-7.25,10.87,63.34,63.34,0,0,0-4.25,14.26,82.94,82.94,0,0,0-1.38,14.6q0,7.71,2.88,12.19t8.85,4.49a14.52,14.52,0,0,0,10.41-4.26,33.33,33.33,0,0,0,7.3-10.81,62.32,62.32,0,0,0,4.25-14.26A82.86,82.86,0,0,0,56,107.55q0-7.93-2.87-12.36T44.27,90.76Z" transform="translate(-7.25 -0.44)"/><path class="cls-3" d="M79.52,80.23h27.91a53.24,53.24,0,0,1,14.46,1.63,23.57,23.57,0,0,1,9,4.53,14.84,14.84,0,0,1,4.58,6.78,27.06,27.06,0,0,1,1.24,8.3,20.14,20.14,0,0,1-2.26,9.44q-2.25,4.35-8.25,7.17a25.3,25.3,0,0,1,6.33,3.84,19.42,19.42,0,0,1,4,4.58,16.45,16.45,0,0,1,2,5.09,25.49,25.49,0,0,1,.57,5.36,28.39,28.39,0,0,1-1.53,9.38,18.4,18.4,0,0,1-5,7.63,24.63,24.63,0,0,1-9.15,5.08,44.59,44.59,0,0,1-13.9,1.87H79.52ZM109,113.34q8,0,11.19-2.94c2.1-2,3.16-4.79,3.16-8.48,0-3.84-1.23-6.61-3.67-8.3S113,91.07,107,91.07H92.74v22.27ZM109,150a30.14,30.14,0,0,0,8.08-.91,12.52,12.52,0,0,0,5.08-2.59,9.44,9.44,0,0,0,2.66-4.07,17,17,0,0,0,.79-5.31q0-6.1-3.45-9.33t-11.92-3.22H92.74V150Z" transform="translate(-7.25 -0.44)"/></g></g></g></svg>