<svg xmlns="http://www.w3.org/2000/svg" viewBox="0 0 156.04 156.04"><defs><style>.cls-1{fill:none;stroke:#d03e27;stroke-miterlimit:10;}.cls-2{fill:#d13e27;}</style></defs><g id="Layer_2" data-name="Layer 2"><g id="Layer_1-2" data-name="Layer 1"><circle class="cls-1" cx="78.02" cy="78.02" r="77.5"/><path class="cls-2" d="M105.44,16.08l-3.67-1.64.57-1.27,8.77,3.92-.57,1.27-3.66-1.64-4.38,9.81-1.45-.64Z"/><path class="cls-2" d="M114.49,19l1.28.9-3,4.19,5,3.54,3-4.19,1.28.9-7,9.92-1.28-.91,3.2-4.52-5-3.54-3.2,4.52-1.28-.9Z"/><path class="cls-2" d="M125.3,27.38l1.14,1.08-8.35,8.81L117,36.19Z"/><path class="cls-2" d="M129.53,31.5l2.5,3.09a6.74,6.74,0,0,1,1.16,1.93,3.67,3.67,0,0,1,.25,1.56A2.51,2.51,0,0,1,133,39.3a4.44,4.44,0,0,1-.85.93,3.86,3.86,0,0,1-1.84.86,3.19,3.19,0,0,1-2-.44l-2.65,5.41-1.1-1.36,2.52-5a3.58,3.58,0,0,1-.33-.34c-.12-.13-.21-.25-.3-.35L125,37.16l-3.92,3.16-1-1.2Zm-1.89,6.83a4.91,4.91,0,0,0,1,.94,2,2,0,0,0,.88.36,1.48,1.48,0,0,0,.83-.12,3.47,3.47,0,0,0,.82-.5,2.72,2.72,0,0,0,.61-.68,1.4,1.4,0,0,0,.23-.78,2.16,2.16,0,0,0-.23-1,6,6,0,0,0-.78-1.2l-1.5-1.86L126,36.32Z"/><path class="cls-2" d="M137.42,45.05l-1.91-3.53,1.23-.66,4.57,8.45-1.22.66-1.91-3.53-9.45,5.12L128,50.17Z"/><path class="cls-2" d="M137,57.91l5.32-6.2.57,1.72-4.34,4.79L145,59.61l.51,1.57-7.93-1.77L132.64,61l-.49-1.5Z"/><path class="cls-2" d="M134.86,79.46a5.89,5.89,0,0,1,.48-2.26,4.77,4.77,0,0,1,1.28-1.73,5.57,5.57,0,0,1,2-1.09,9.34,9.34,0,0,1,5.44.17,5.83,5.83,0,0,1,2,1.22,4.84,4.84,0,0,1,1.19,1.8,6.22,6.22,0,0,1-.13,4.52,4.66,4.66,0,0,1-1.27,1.73,5.74,5.74,0,0,1-2,1.08,9.45,9.45,0,0,1-5.44-.16,5.72,5.72,0,0,1-2-1.19,4.69,4.69,0,0,1-1.19-1.8A5.86,5.86,0,0,1,134.86,79.46Zm1.35,0a4,4,0,0,0,.31,1.72,3.42,3.42,0,0,0,1,1.26,4.77,4.77,0,0,0,1.56.79,7.61,7.61,0,0,0,2.06.32,7.93,7.93,0,0,0,2.06-.19,4.73,4.73,0,0,0,1.61-.71,3.36,3.36,0,0,0,1.05-1.2,3.76,3.76,0,0,0,.41-1.69,4,4,0,0,0-.3-1.74,3.5,3.5,0,0,0-1-1.27,4.41,4.41,0,0,0-1.56-.79,7.65,7.65,0,0,0-2-.31,8.4,8.4,0,0,0-2.07.18,4.72,4.72,0,0,0-1.61.69,3.5,3.5,0,0,0-1,1.21A4,4,0,0,0,136.21,79.5Z"/><path class="cls-2" d="M146.35,89.94l-.95,3.91a7.53,7.53,0,0,1-.74,2,3.53,3.53,0,0,1-.95,1.13,2.37,2.37,0,0,1-1.12.42,3.94,3.94,0,0,1-1.22-.11A2.64,2.64,0,0,1,139.24,95a3.87,3.87,0,0,1-.77.86,2.85,2.85,0,0,1-.83.46,2.35,2.35,0,0,1-.86.14,3.54,3.54,0,0,1-.85-.11,4.11,4.11,0,0,1-1.3-.55,2.74,2.74,0,0,1-.9-1,3.43,3.43,0,0,1-.41-1.48,6.57,6.57,0,0,1,.21-2.06l1-4.22ZM134.8,91.55a5.44,5.44,0,0,0-.18,1.38,2.34,2.34,0,0,0,.22,1,1.42,1.42,0,0,0,.55.61,2.92,2.92,0,0,0,.86.34,2.08,2.08,0,0,0,1.74-.23,3.13,3.13,0,0,0,1-1.91l.67-2.79-4.26-1Zm5.57,1.29a3.07,3.07,0,0,0,0,2,1.81,1.81,0,0,0,1.29.92,1.61,1.61,0,0,0,1.54-.28,4,4,0,0,0,.94-2l.58-2.38-3.74-.9Z"/><path class="cls-2" d="M134.84,99.48a4.51,4.51,0,0,0-1.05-.2,2.26,2.26,0,0,0-.94.11,2.21,2.21,0,0,0-.81.51,3.28,3.28,0,0,0-.67,1,2.37,2.37,0,0,0-.09,2.16,3.78,3.78,0,0,0,1.83,1.46l7.33,3.25-.63,1.43-7.44-3.3a4.35,4.35,0,0,1-2.51-2.32,4.22,4.22,0,0,1,.25-3.2,4.54,4.54,0,0,1,2.1-2.38,4.24,4.24,0,0,1,3.27,0Z"/><path class="cls-2" d="M137.55,113.27l-4.41,6.5L132,119l3.52-5.2-3.15-2.14L129,116.57l-1.15-.78,3.34-4.92-3.46-2.35L124.06,114l-1-1,4.45-6.56Z"/><path class="cls-2" d="M117.53,124.45a5.78,5.78,0,0,1-.87-1.54,4.12,4.12,0,0,1-.28-1.66,4.18,4.18,0,0,1,.43-1.68,6.31,6.31,0,0,1,3.12-2.95,4.5,4.5,0,0,1,2.08-.31,5.76,5.76,0,0,1,2.17.66,8.8,8.8,0,0,1,2.17,1.64,8.35,8.35,0,0,1,1.62,2.22,5.79,5.79,0,0,1,.61,2.23,5,5,0,0,1-.36,2.1A5.3,5.3,0,0,1,127,127a5.84,5.84,0,0,1-1.58,1.16,3.74,3.74,0,0,1-1.56.39,4.05,4.05,0,0,1-1.53-.24,7.07,7.07,0,0,1-1.52-.78l.91-1.25a6.58,6.58,0,0,0,1.12.57,3,3,0,0,0,1.09.2,2.44,2.44,0,0,0,1-.24A3.88,3.88,0,0,0,126,126a3.43,3.43,0,0,0,.89-1.4,3.56,3.56,0,0,0,.13-1.56,4.73,4.73,0,0,0-.59-1.64,8.25,8.25,0,0,0-2.88-2.91,4.64,4.64,0,0,0-1.64-.61,3.32,3.32,0,0,0-1.57.11,3.5,3.5,0,0,0-1.4.89,4,4,0,0,0-.86,1.15,2.52,2.52,0,0,0-.27,1.11,3,3,0,0,0,.23,1.09,5.52,5.52,0,0,0,.61,1.07Z"/><path class="cls-2" d="M116.54,133.35l3.34-2.22.77,1.17-8,5.31-.77-1.17,3.34-2.21-5.94-9,1.32-.87Z"/><path class="cls-2" d="M105.11,131.68a2.64,2.64,0,0,0-1.66-1.3,4.13,4.13,0,0,0-2.43.42,4.28,4.28,0,0,0-1.16.68,2.34,2.34,0,0,0-.6.78,1.67,1.67,0,0,0-.15.82,2.79,2.79,0,0,0,.2.83,3.61,3.61,0,0,0,.35.6,1.41,1.41,0,0,0,.54.42,2.11,2.11,0,0,0,.81.17,4.26,4.26,0,0,0,1.15-.14l1.52-.34a7.89,7.89,0,0,1,1.63-.25,3.84,3.84,0,0,1,1.34.14,2.38,2.38,0,0,1,1.06.62,3.8,3.8,0,0,1,.8,1.24,3,3,0,0,1,.25,1.48,3.11,3.11,0,0,1-.46,1.34,4.11,4.11,0,0,1-1,1.13,7.21,7.21,0,0,1-1.55.88,6.78,6.78,0,0,1-2,.55,3.9,3.9,0,0,1-1.49-.14,3,3,0,0,1-1.11-.63,5.87,5.87,0,0,1-.82-.91l1.23-.84a4.13,4.13,0,0,0,.68.7,1.94,1.94,0,0,0,.77.39,2.48,2.48,0,0,0,.95,0,4.89,4.89,0,0,0,1.19-.36,5.74,5.74,0,0,0,1.23-.68,2.61,2.61,0,0,0,.66-.74,1.46,1.46,0,0,0,.2-.77,2.1,2.1,0,0,0-.17-.77,2.53,2.53,0,0,0-.4-.67,1.47,1.47,0,0,0-.57-.38,2.18,2.18,0,0,0-.8-.11,6.42,6.42,0,0,0-1.08.16l-1.68.38a5.61,5.61,0,0,1-3,0,3.13,3.13,0,0,1-1.76-1.88,3.18,3.18,0,0,1-.28-1.37,2.93,2.93,0,0,1,.33-1.35,3.83,3.83,0,0,1,1-1.23,6.06,6.06,0,0,1,1.69-1,8.48,8.48,0,0,1,1.88-.57,4.19,4.19,0,0,1,1.66,0,3.29,3.29,0,0,1,1.41.67,4.22,4.22,0,0,1,1.11,1.38Z"/><path class="cls-2" d="M51.93,139.48l3.67,1.64L55,142.39l-8.77-3.91.56-1.28,3.67,1.64L54.87,129l1.44.64Z"/><path class="cls-2" d="M42.9,136.55l-1.28-.9,3-4.2-5-3.53-3,4.2-1.28-.9,7-9.93,1.28.9-3.19,4.53,5,3.54,3.19-4.53,1.28.9Z"/><path class="cls-2" d="M32.08,128.2l-1.14-1.07,8.34-8.82,1.14,1.08Z"/><path class="cls-2" d="M27.84,124.09,25.34,121a6.74,6.74,0,0,1-1.16-1.93,3.67,3.67,0,0,1-.25-1.56,2.61,2.61,0,0,1,.42-1.22,4.21,4.21,0,0,1,.85-.93A3.82,3.82,0,0,1,27,114.5a3.18,3.18,0,0,1,2,.43l2.64-5.41,1.1,1.36-2.51,5a3.75,3.75,0,0,1,.33.35l.3.35,1.51,1.86,3.91-3.16,1,1.2Zm1.89-6.83a4.73,4.73,0,0,0-1-1,2.22,2.22,0,0,0-.88-.36,1.6,1.6,0,0,0-.83.13,3.47,3.47,0,0,0-.82.5,2.87,2.87,0,0,0-.61.67,1.55,1.55,0,0,0-.23.79,2.16,2.16,0,0,0,.23,1,6,6,0,0,0,.78,1.2l1.5,1.85,3.45-2.78Z"/><path class="cls-2" d="M19.94,110.54l1.92,3.53-1.23.66-4.58-8.44,1.23-.67,1.91,3.53L28.63,104l.76,1.39Z"/><path class="cls-2" d="M20.32,97.68,15,103.88l-.56-1.71,4.32-4.8L12.4,96l-.51-1.57,7.93,1.76,4.9-1.61.49,1.51Z"/><path class="cls-2" d="M22.48,76.14A5.83,5.83,0,0,1,22,78.39a4.9,4.9,0,0,1-1.27,1.74,5.55,5.55,0,0,1-2,1.08,8.32,8.32,0,0,1-2.73.33,8.23,8.23,0,0,1-2.71-.49,5.73,5.73,0,0,1-2-1.22A4.84,4.84,0,0,1,10.1,78a6,6,0,0,1-.36-2.27,6.27,6.27,0,0,1,.48-2.25,4.76,4.76,0,0,1,1.28-1.72,5.66,5.66,0,0,1,2-1.08,8.22,8.22,0,0,1,2.72-.33,8.63,8.63,0,0,1,2.72.48,5.57,5.57,0,0,1,2,1.19,4.85,4.85,0,0,1,1.19,1.79A5.89,5.89,0,0,1,22.48,76.14Zm-1.35,0a4.06,4.06,0,0,0-.31-1.72,3.27,3.27,0,0,0-1-1.26,4.59,4.59,0,0,0-1.56-.8,8.58,8.58,0,0,0-4.11-.12,4.83,4.83,0,0,0-1.61.71,3.48,3.48,0,0,0-1.05,1.21,4.24,4.24,0,0,0-.1,3.42,3.37,3.37,0,0,0,1,1.27A4.38,4.38,0,0,0,14,79.6a7.53,7.53,0,0,0,2,.31,8.4,8.4,0,0,0,2.07-.18,4.58,4.58,0,0,0,1.6-.7,3.2,3.2,0,0,0,1-1.2A4,4,0,0,0,21.13,76.1Z"/><path class="cls-2" d="M11,65.64l.94-3.92a7.81,7.81,0,0,1,.74-2,3.61,3.61,0,0,1,.95-1.12,2.17,2.17,0,0,1,1.12-.42,4,4,0,0,1,1.23.1,2.67,2.67,0,0,1,2.12,2.28,4.06,4.06,0,0,1,.77-.85,3,3,0,0,1,.83-.47,2.62,2.62,0,0,1,.86-.14,4.22,4.22,0,0,1,.86.11,4.16,4.16,0,0,1,1.29.55,2.85,2.85,0,0,1,.91,1A3.47,3.47,0,0,1,24,62.21a6.61,6.61,0,0,1-.22,2.06l-1,4.22Zm6-2.91a3.07,3.07,0,0,0,0-2,1.85,1.85,0,0,0-1.29-.92,1.62,1.62,0,0,0-1.54.29,3.9,3.9,0,0,0-.94,2l-.58,2.38,3.74.9ZM22.53,64a5.44,5.44,0,0,0,.18-1.38,2.27,2.27,0,0,0-.21-1,1.5,1.5,0,0,0-.56-.61,3,3,0,0,0-.85-.34,2.12,2.12,0,0,0-1.74.23,3.11,3.11,0,0,0-1.05,1.92l-.68,2.79,4.27,1Z"/><path class="cls-2" d="M22.5,56.09a5.05,5.05,0,0,0,1,.21,2.41,2.41,0,0,0,.94-.12,2,2,0,0,0,.82-.51,3.16,3.16,0,0,0,.66-1,2.33,2.33,0,0,0,.09-2.17A3.77,3.77,0,0,0,24.22,51l-7.34-3.26.64-1.43L25,49.66A4.29,4.29,0,0,1,27.47,52a4.18,4.18,0,0,1-.25,3.2,4.52,4.52,0,0,1-2.1,2.37,4.23,4.23,0,0,1-3.27,0Z"/><path class="cls-2" d="M19.76,42.33l4.41-6.5,1.14.77-3.53,5.21,3.15,2.13L28.27,39l1.15.79-3.33,4.92,3.46,2.35,3.71-5.48,1,1-4.45,6.56Z"/><path class="cls-2" d="M39.78,31.13a5.63,5.63,0,0,1,.87,1.54,4.48,4.48,0,0,1,.28,1.65A4.38,4.38,0,0,1,40.51,36a6,6,0,0,1-1.22,1.66A5.76,5.76,0,0,1,37.38,39a4.48,4.48,0,0,1-2.08.31,5.79,5.79,0,0,1-2.17-.65A8.79,8.79,0,0,1,31,37a8,8,0,0,1-1.62-2.22,5.7,5.7,0,0,1-.61-2.22,4.85,4.85,0,0,1,.36-2.1,5.55,5.55,0,0,1,1.22-1.82,6.23,6.23,0,0,1,1.58-1.16,4.17,4.17,0,0,1,1.56-.39,3.92,3.92,0,0,1,1.54.25,7.25,7.25,0,0,1,1.52.77l-.91,1.25a6.31,6.31,0,0,0-1.13-.57,3.26,3.26,0,0,0-1.08-.2,2.52,2.52,0,0,0-1.06.24,3.87,3.87,0,0,0-1.06.78A3.48,3.48,0,0,0,30.39,31a3.29,3.29,0,0,0-.13,1.56,4.7,4.7,0,0,0,.59,1.65,7.62,7.62,0,0,0,1.26,1.63,8,8,0,0,0,1.62,1.28,4.94,4.94,0,0,0,1.65.6,3.28,3.28,0,0,0,1.56-.11,3.5,3.5,0,0,0,1.4-.89,3.87,3.87,0,0,0,.86-1.15,2.55,2.55,0,0,0,.27-1.11,3,3,0,0,0-.23-1.09,5.52,5.52,0,0,0-.61-1.07Z"/><path class="cls-2" d="M40.76,22.23l-3.34,2.22-.77-1.16,8-5.32.77,1.16-3.34,2.22,5.94,9-1.31.87Z"/><path class="cls-2" d="M52.21,23.88a2.64,2.64,0,0,0,1.66,1.3,4.13,4.13,0,0,0,2.43-.42,4.28,4.28,0,0,0,1.16-.69,2.25,2.25,0,0,0,.61-.77,1.57,1.57,0,0,0,.14-.82,2.46,2.46,0,0,0-.2-.83,2.55,2.55,0,0,0-.35-.6,1.41,1.41,0,0,0-.54-.42,1.94,1.94,0,0,0-.81-.17,4.25,4.25,0,0,0-1.15.13l-1.52.35a7.89,7.89,0,0,1-1.63.25,3.84,3.84,0,0,1-1.34-.14,2.38,2.38,0,0,1-1.06-.62,3.63,3.63,0,0,1-.79-1.24,2.93,2.93,0,0,1-.26-1.48A3.15,3.15,0,0,1,49,16.37a4.11,4.11,0,0,1,1-1.13,7.21,7.21,0,0,1,1.55-.88,6.78,6.78,0,0,1,2-.55,3.72,3.72,0,0,1,1.49.14,3,3,0,0,1,1.11.62,5.94,5.94,0,0,1,.82.92l-1.23.84a4.13,4.13,0,0,0-.68-.7,1.94,1.94,0,0,0-.77-.39,2.48,2.48,0,0,0-1,0,4.77,4.77,0,0,0-1.19.36,5,5,0,0,0-1.23.69,2.58,2.58,0,0,0-.66.73,1.46,1.46,0,0,0-.2.77,2.1,2.1,0,0,0,.17.77,2.53,2.53,0,0,0,.4.67,1.47,1.47,0,0,0,.57.38,2.18,2.18,0,0,0,.8.11,7.64,7.64,0,0,0,1.08-.16l1.68-.38a5.42,5.42,0,0,1,3,0A3.15,3.15,0,0,1,59.56,21a3.32,3.32,0,0,1,.27,1.37,3,3,0,0,1-.33,1.35,3.83,3.83,0,0,1-1,1.23,6.31,6.31,0,0,1-1.69,1,8.4,8.4,0,0,1-1.87.57,4.43,4.43,0,0,1-1.67,0,3.4,3.4,0,0,1-1.41-.67,4.09,4.09,0,0,1-1.1-1.38Z"/><line class="cls-1" x1="78.6" y1="122.52" x2="78.14" y2="32.94"/><line class="cls-1" x1="123.16" y1="77.5" x2="33.58" y2="77.96"/><line class="cls-1" x1="110.2" y1="45.64" x2="46.54" y2="109.83"/><line class="cls-1" x1="46.38" y1="46.3" x2="110.36" y2="109.17"/><line class="cls-1" x1="95.72" y1="119.02" x2="61.02" y2="36.44"/><line class="cls-1" x1="119.66" y1="60.38" x2="37.08" y2="95.08"/><line class="cls-1" x1="119.84" y1="94.66" x2="36.91" y2="60.8"/><line class="cls-1" x1="95.3" y1="36.27" x2="61.44" y2="119.2"/></g></g></svg>